<svg xmlns="http://www.w3.org/2000/svg" viewBox="0 0 1280 320" width="1280" height="320" role="img" aria-label="Mohammad Hajibabaie - Operations Research, Combinatorial Optimization, Python"><style>@keyframes flow{to{stroke-dashoffset:-76;}}.dash{animation:flow 3.4s linear infinite;}@media (prefers-reduced-motion: reduce){.dash{animation:none;}}</style><rect width="1280" height="320" fill="#0d1117"/><radialGradient id="g" cx="0.5" cy="0.5" r="0.5"><stop offset="0" stop-color="#2dd4bf" stop-opacity="0.05"/><stop offset="1" stop-color="#2dd4bf" stop-opacity="0"/></radialGradient><ellipse cx="992" cy="170" rx="310" ry="185" fill="url(#g)"/><text x="64" y="120" font-family="-apple-system,BlinkMacSystemFont,'Segoe UI',Helvetica,Arial,sans-serif" font-size="13" font-weight="600" letter-spacing="3.2" fill="#56d4bd">TU CLAUSTHAL · PHD CANDIDATE</text><text x="62" y="180" font-family="-apple-system,BlinkMacSystemFont,'Segoe UI',Helvetica,Arial,sans-serif" font-size="49" font-weight="600" letter-spacing="-1" fill="#e6edf3">Mohammad Hajibabaie</text><text x="64" y="220" font-family="-apple-system,BlinkMacSystemFont,'Segoe UI',Helvetica,Arial,sans-serif" font-size="20" font-weight="400" fill="#8b949e">Operations Research · Combinatorial Optimization · Python</text><rect x="64" y="248" width="44" height="3" rx="1.5" fill="#2dd4bf"/><line x1="740.0" y1="168" x2="771.0" y2="78" stroke="#21262d" stroke-width="1.1"/><line x1="740.0" y1="168" x2="840.3" y2="228" stroke="#21262d" stroke-width="1.1"/><line x1="803.8" y1="52" x2="771.0" y2="78" stroke="#21262d" stroke-width="1.1"/><line x1="803.8" y1="52" x2="847.6" y2="122" stroke="#21262d" stroke-width="1.1"/><line x1="813.0" y1="304" x2="756.4" y2="282" stroke="#21262d" stroke-width="1.1"/><line x1="889.6" y1="268" x2="840.3" y2="228" stroke="#21262d" stroke-width="1.1"/><line x1="889.6" y1="268" x2="984.4" y2="252" stroke="#21262d" stroke-width="1.1"/><line x1="968.0" y1="72" x2="847.6" y2="122" stroke="#21262d" stroke-width="1.1"/><line x1="968.0" y1="72" x2="944.3" y2="116" stroke="#21262d" stroke-width="1.1"/><line x1="944.3" y1="116" x2="922.4" y2="168" stroke="#21262d" stroke-width="1.1"/><line x1="984.4" y1="252" x2="1033.7" y2="210" stroke="#21262d" stroke-width="1.1"/><line x1="1033.7" y1="210" x2="1022.7" y2="160" stroke="#21262d" stroke-width="1.1"/><line x1="1072.0" y1="240" x2="1177.8" y2="228" stroke="#21262d" stroke-width="1.1"/><line x1="1072.0" y1="240" x2="1033.7" y2="210" stroke="#21262d" stroke-width="1.1"/><line x1="1081.1" y1="64" x2="1112.1" y2="150" stroke="#21262d" stroke-width="1.1"/><line x1="1081.1" y1="64" x2="1185.1" y2="96" stroke="#21262d" stroke-width="1.1"/><line x1="1152.2" y1="296" x2="1177.8" y2="228" stroke="#21262d" stroke-width="1.1"/><line x1="1152.2" y1="296" x2="1072.0" y2="240" stroke="#21262d" stroke-width="1.1"/><line x1="1203.3" y1="168" x2="1185.1" y2="96" stroke="#21262d" stroke-width="1.1"/><line x1="1203.3" y1="168" x2="1177.8" y2="228" stroke="#21262d" stroke-width="1.1"/><line x1="968.0" y1="72" x2="1081.1" y2="64" stroke="#21262d" stroke-width="1.1"/><line x1="813.0" y1="304" x2="889.6" y2="268" stroke="#21262d" stroke-width="1.1"/><line x1="944.3" y1="116" x2="803.8" y2="52" stroke="#21262d" stroke-width="1.1"/><path d="M 922.4 168 L 1022.7 160 L 1112.1 150" fill="none" stroke="#30363d" stroke-width="7" stroke-linecap="round" stroke-linejoin="round"/><path d="M 771.0 78 L 847.6 122 L 922.4 168 L 1022.7 160 L 1112.1 150 L 1185.1 96 L 1238.0 58" fill="none" stroke="#2dd4bf" stroke-opacity="0.28" stroke-width="2.4" stroke-linecap="round" stroke-linejoin="round"/><path d="M 756.4 282 L 840.3 228 L 922.4 168 L 1022.7 160 L 1112.1 150 L 1177.8 228 L 1232.5 276" fill="none" stroke="#f0b429" stroke-opacity="0.28" stroke-width="2.4" stroke-linecap="round" stroke-linejoin="round"/><path class="dash" d="M 771.0 78 L 847.6 122 L 922.4 168 L 1022.7 160 L 1112.1 150 L 1185.1 96 L 1238.0 58" fill="none" stroke="#2dd4bf" stroke-width="2.6" stroke-linecap="round" stroke-linejoin="round" stroke-dasharray="13 25" stroke-dashoffset="0"/><path class="dash" d="M 756.4 282 L 840.3 228 L 922.4 168 L 1022.7 160 L 1112.1 150 L 1177.8 228 L 1232.5 276" fill="none" stroke="#f0b429" stroke-width="2.6" stroke-linecap="round" stroke-linejoin="round" stroke-dasharray="13 25" stroke-dashoffset="-19"/><circle cx="740.0" cy="168" r="3.4" fill="#3d444d"/><circle cx="803.8" cy="52" r="3.4" fill="#3d444d"/><circle cx="813.0" cy="304" r="3.4" fill="#3d444d"/><circle cx="889.6" cy="268" r="3.4" fill="#3d444d"/><circle cx="968.0" cy="72" r="3.4" fill="#3d444d"/><circle cx="984.4" cy="252" r="3.4" fill="#3d444d"/><circle cx="1072.0" cy="240" r="3.4" fill="#3d444d"/><circle cx="1081.1" cy="64" r="3.4" fill="#3d444d"/><circle cx="1152.2" cy="296" r="3.4" fill="#3d444d"/><circle cx="1203.3" cy="168" r="3.4" fill="#3d444d"/><circle cx="944.3" cy="116" r="3.4" fill="#3d444d"/><circle cx="1033.7" cy="210" r="3.4" fill="#3d444d"/><circle cx="771.0" cy="78" r="5" fill="#2dd4bf" stroke="#0d1117" stroke-width="2"/><circle cx="847.6" cy="122" r="5" fill="#2dd4bf" stroke="#0d1117" stroke-width="2"/><circle cx="1185.1" cy="96" r="5" fill="#2dd4bf" stroke="#0d1117" stroke-width="2"/><circle cx="1238.0" cy="58" r="5" fill="#2dd4bf" stroke="#0d1117" stroke-width="2"/><circle cx="756.4" cy="282" r="5" fill="#f0b429" stroke="#0d1117" stroke-width="2"/><circle cx="840.3" cy="228" r="5" fill="#f0b429" stroke="#0d1117" stroke-width="2"/><circle cx="1177.8" cy="228" r="5" fill="#f0b429" stroke="#0d1117" stroke-width="2"/><circle cx="1232.5" cy="276" r="5" fill="#f0b429" stroke="#0d1117" stroke-width="2"/><circle cx="922.4" cy="168" r="6.6" fill="#0d1117" stroke="#2dd4bf" stroke-width="2"/><circle cx="922.4" cy="168" r="2.6" fill="#f0b429"/><circle cx="1022.7" cy="160" r="6.6" fill="#0d1117" stroke="#2dd4bf" stroke-width="2"/><circle cx="1022.7" cy="160" r="2.6" fill="#f0b429"/><circle cx="1112.1" cy="150" r="6.6" fill="#0d1117" stroke="#2dd4bf" stroke-width="2"/><circle cx="1112.1" cy="150" r="2.6" fill="#f0b429"/></svg>